<svg version="1.1" id="Layer_1" xmlns="http://www.w3.org/2000/svg" x="0" y="0" viewBox="0 0 40 40" xml:space="preserve"><style>.st0{fill:#57a4ff}.st1{fill:#004fac}</style><path class="st0" d="M27.7.6c-6.4 0-11.6 5.2-11.6 11.6 0 6.4 5.2 11.6 11.6 11.6s11.6-5.2 11.6-11.6C39.4 5.8 34.2.6 27.7.6zm0 20c-4.6 0-8.4-3.8-8.4-8.4s3.8-8.4 8.4-8.4 8.4 3.8 8.4 8.4-3.7 8.4-8.4 8.4z"/><path class="st0" d="M22.7 22.7l-5.5-5.5c-5-2.4-11.2-.8-14.4 3.8C-.5 25.6.1 31.9 4.1 35.9s10.3 4.5 14.9 1.3 6.2-9.4 3.7-14.5zM12.3 36.1c-4.6 0-8.4-3.8-8.4-8.4s3.8-8.4 8.4-8.4 8.4 3.8 8.4 8.4c0 2.2-.9 4.4-2.5 5.9-1.6 1.6-3.7 2.5-5.9 2.5z"/><g><path class="st1" d="M27.7 0C21 0 15.5 5.5 15.5 12.3c0 1.3.2 2.6.6 3.8-1.2-.4-2.5-.6-3.8-.6C5.5 15.5 0 21 0 27.7S5.5 40 12.3 40c6.8 0 12.3-5.5 12.3-12.3 0-1.3-.2-2.6-.6-3.8 1.2.4 2.5.6 3.8.6C34.5 24.5 40 19 40 12.3S34.5 0 27.7 0zM12.3 38.7c-6 0-11-4.9-11-11s4.9-11 11-11c1.6 0 3.1.3 4.5 1 1.2 2.4 3.1 4.3 5.5 5.5.6 1.4 1 3 1 4.5-.1 6.1-5 11-11 11zm15.4-15.5c-6 0-11-4.9-11-11s4.9-11 11-11 11 4.9 11 11-4.9 11-11 11z"/><path class="st1" d="M27.7 3.2c-3.7 0-6.9 2.2-8.3 5.6-1.4 3.4-.6 7.3 2 9.8s6.5 3.4 9.8 2c3.4-1.4 5.6-4.7 5.6-8.3 0-5-4.1-9.1-9.1-9.1zm0 16.8c-4.3 0-7.7-3.5-7.7-7.7s3.5-7.7 7.7-7.7 7.7 3.5 7.7 7.7c.1 4.2-3.4 7.7-7.7 7.7zm-15.4-1.3c-5 0-9 4-9 9s4 9 9 9 9-4 9-9c0-4.9-4.1-9-9-9zm0 16.8c-4.3 0-7.7-3.5-7.7-7.7S8 20 12.3 20s7.7 3.5 7.7 7.7c0 4.3-3.5 7.8-7.7 7.8z"/><path class="st1" d="M31 15.5c0 .4-.3.6-.6.6h-2.6c-1.2 0-2.2-.8-2.5-1.9h-.1c-.4 0-.6-.3-.6-.6s.3-.6.6-.6v-.6c-.4 0-.6-.3-.6-.6 0-.4.3-.6.6-.6h.1c.2-1.4 1.3-2.2 2.4-2.2h2.6c.4 0 .7.3.7.7 0 .4-.3.6-.6.6h-2.6c-.5 0-.9.2-1.1.6H29c.4 0 .6.3.6.6 0 .4-.3.6-.6.6h-2.6v.6H29c.4 0 .6.3.6.6 0 .4-.3.6-.6.6h-2.4c.2.4.7.6 1.1.6h2.6c.4.3.7.6.7 1zM14.8 29c0 1.1-.9 1.9-1.9 1.9 0 .4-.3.6-.6.6-.4 0-.6-.3-.6-.6H11c-.4 0-.6-.3-.6-.6 0-.4.3-.6.6-.6h1.9c.4 0 .6-.3.6-.6 0-.4-.3-.6-.6-.6h-.6c-.9 0-1.7-.7-1.9-1.6-.2-.9.4-1.8 1.3-2.2 0-.3.3-.6.6-.6s.6.2.7.6h.6c.4 0 .6.3.6.6 0 .4-.3.6-.6.6h-1.3c-.4 0-.6.3-.6.6 0 .4.3.6.6.6h.6c.5 0 1 .2 1.4.6.3.3.5.8.5 1.3zM35 23.8h-.5c-.2.1-.3.2-.3.4-1.4 4.8-5.1 8.5-9.9 9.9-.2.1-.4.2-.4.5-.1.2 0 .5.2.6.2.2.4.2.6.1 5.2-1.6 9.2-5.6 10.8-10.8V24c-.2 0-.3-.1-.5-.2zm-30.2-7c.2 0 .3 0 .5-.1.1-.1.3-.2.3-.4C7 11.1 11.1 7 16.3 5.6c.3-.1.6-.4.5-.8-.1-.3-.4-.6-.8-.5-5.7 1.5-10.2 6-11.6 11.7 0 .2 0 .3.1.5 0 .1.2.2.3.3z"/></g></svg>