<svg version="1.1" id="Layer_1" xmlns="http://www.w3.org/2000/svg" x="0" y="0" viewBox="0 0 40 40" xml:space="preserve"><style>.st0{fill:#57a4ff}</style><path class="st0" d="M30.2 5.9c.8-.2 1.5-.5 2.2-.8C29 2.2 24.8.6 20.3.6c3.9.2 7.3 2.2 9.9 5.3z"/><path class="st0" d="M26.5 6.7c1.2-.2 2.5-.4 3.7-.7-2.6-3.2-6-5.2-9.8-5.3 2.4.2 4.6 2.4 6.1 6zm-6.1-6H20h.4zM30.2 34c.8.2 1.5.5 2.2.8 2.5-2.1 4.4-4.7 5.6-7.7h-4.2c-.7 2.5-2 4.9-3.6 6.9zM20.4.7H20.1h.2.1zM20 39.4h.4-.4zm6.5-6.1c-2.2-.3-4.4-.4-6.5-.4v6.5h.4c2.4-.3 4.6-2.5 6.1-6.1z"/><path class="st0" d="M20 39.4H20.3h-.2-.1zm-6.5-6.1c1.6 3.5 3.7 5.8 6.2 6h.4v-6.5c-2.3.1-4.5.2-6.6.5zm13-26.6c-1.6-3.5-3.7-5.8-6.2-6h-.4v6.5c2.3-.1 4.5-.2 6.6-.5zm-6.9 32.6h.4c-.1.1-.2.1-.4 0zM30.2 34c-1.2-.3-2.4-.6-3.7-.7-1.6 3.5-3.7 5.8-6.2 6 3.9-.1 7.3-2.1 9.9-5.3z"/><path class="st0" d="M20.4 39.3c4.4-.1 8.7-1.7 12.1-4.5-.7-.3-1.5-.6-2.2-.8-2.7 3.2-6.1 5.2-9.9 5.3zm6.1-32.6c.9 2 1.5 4.1 1.9 6.2h5.4c-.7-2.5-2-4.9-3.6-7-1.2.4-2.4.6-3.7.8z"/><path class="st0" d="M20 7.1v5.8h8.4c-.4-2.1-1-4.2-1.9-6.2-2.1.3-4.3.4-6.5.4zm12.4-1.9c-.7.3-1.5.6-2.2.8 1.6 2.1 2.9 4.4 3.6 7H38c-1.2-3.1-3.1-5.7-5.6-7.8zM13.5 6.7c-.9 2-1.5 4.1-1.9 6.2H20V7.1c-2.2 0-4.4-.1-6.5-.4z"/><path class="st0" d="M13.5 6.7c2.1.3 4.3.4 6.5.4V.6h-.4c-2.4.3-4.6 2.5-6.1 6.1zM20 .7h-.4.4z"/><path class="st0" d="M20 .7h-.2-.1H20zM9.8 5.9c1.2.3 2.4.6 3.7.7 1.6-3.5 3.7-5.8 6.2-6-3.9.2-7.3 2.2-9.9 5.3zm-2.2-.7C5.1 7.3 3.2 9.9 2 12.9h4.2c.7-2.5 2-4.9 3.6-7-.8-.1-1.5-.4-2.2-.7z"/><path class="st0" d="M9.8 5.9c-1.6 2.1-2.9 4.4-3.6 7h5.4c.4-2.1 1-4.2 1.9-6.2-1.3-.2-2.5-.4-3.7-.8zM19.6.7c-4.4.1-8.7 1.7-12.1 4.5.8.3 1.5.6 2.3.7 2.6-3.1 6-5.1 9.8-5.2zm0 38.6H19.9h-.2c.1.1 0 .1-.1 0zM6.2 27.1H2c1.2 3 3.1 5.6 5.6 7.7.7-.3 1.4-.6 2.2-.8-1.6-2-2.9-4.4-3.6-6.9zM20 32.9v-5.8h-8.4c.4 2.1 1 4.2 1.9 6.2 2.1-.3 4.3-.4 6.5-.4z"/><path class="st0" d="M9.8 34c-.8.2-1.5.5-2.2.8 3.4 2.9 7.6 4.5 12.1 4.5-3.9-.1-7.3-2.1-9.9-5.3zm16.7-.7c.9-2 1.5-4.1 1.9-6.2H20v5.8c2.2 0 4.4.1 6.5.4z"/><path class="st0" d="M13.5 33.3c-1.2.2-2.5.4-3.7.7 2.6 3.2 6 5.2 9.8 5.3-2.4-.2-4.6-2.4-6.1-6z"/><path class="st0" d="M13.5 33.3c-.9-2-1.5-4.1-1.9-6.2H6.2c.7 2.5 2 4.9 3.6 7 1.2-.4 2.4-.6 3.7-.8zm16.7.7c1.6-2.1 2.9-4.4 3.6-7h-5.4c-.4 2.1-1 4.2-1.9 6.2 1.3.3 2.5.5 3.7.8z"/><path d="M.6 13.5h38.7c.4 0 .6-.3.6-.6 0-.4-.3-.6-.6-.6h-.9C35.4 5 28.3.2 20.4 0h-.8c-7.9.1-15 4.9-18 12.2h-1c-.4 0-.6.3-.6.6 0 .5.3.7.6.7zm25-7.4c-1.6.2-3.3.3-4.9.3v-5c1.8.3 3.5 2 4.9 4.7zm-6.2-4.7v5.1c-1.6 0-3.3-.1-4.9-.3 1.3-2.7 3-4.5 4.9-4.8zm0 6.3v4.5h-7c.3-1.7.8-3.3 1.5-4.9 1.8.3 3.6.4 5.5.4zm1.2 0c1.8 0 3.7-.1 5.5-.4.6 1.6 1.1 3.2 1.5 4.9h-7V7.7zm6.8-.5c.9-.2 1.8-.3 2.6-.5 1.3 1.7 2.3 3.6 2.9 5.6h-4c-.3-1.8-.8-3.5-1.5-5.1zM26.9 6c-.6-1.3-1.4-2.6-2.4-3.7 1.7.7 3.3 1.9 4.5 3.3-.6.1-1.3.3-2.1.4zM13.1 6c-.7-.1-1.5-.2-2.1-.4 1.3-1.4 2.8-2.5 4.5-3.3-1 1.1-1.8 2.3-2.4 3.7zm-.5 1.2c-.6 1.6-1.1 3.3-1.5 5.1h-4c.7-2 1.7-3.9 2.9-5.6.8.2 1.7.3 2.6.5zM37 12.3h-2.8c-.7-2.1-1.7-4.1-3-6 .4-.1.7-.2 1.1-.4 2 1.8 3.6 3.9 4.7 6.4zM31.2 5c-.2.1-.5.2-.7.2-.6-.7-1.2-1.3-1.8-1.8.8.4 1.7 1 2.5 1.6zm-21.6.2c-.3-.1-.5-.1-.8-.2.8-.6 1.7-1.1 2.6-1.6-.7.5-1.3 1.2-1.8 1.8zm-1.9.7c.3.2.6.3 1 .4-1.3 1.8-2.3 3.8-3 6H3c1.1-2.5 2.7-4.6 4.7-6.4zm31.7 20.6H.6c-.4 0-.6.3-.6.6 0 .4.3.6.6.6h.9c3 7.3 10.1 12.1 18 12.2h.8c7.9-.1 15-4.9 18-12.2h.9c.4 0 .6-.3.6-.6s-.1-.6-.4-.6zm-25 7.4c1.6-.2 3.3-.3 4.9-.3v5.1c-1.8-.4-3.5-2.1-4.9-4.8zm6.2 4.7v-5.1c1.6 0 3.3.1 4.9.3-1.3 2.7-3 4.5-4.9 4.8zm0-6.3v-4.5h7c-.3 1.7-.8 3.3-1.5 4.9-1.8-.3-3.6-.4-5.5-.4zm-1.2 0c-1.8 0-3.7.1-5.5.4-.6-1.6-1.1-3.2-1.5-4.9h7v4.5zm-6.8.5c-.9.1-1.7.3-2.5.5-1.3-1.7-2.3-3.6-2.9-5.6h4c.2 1.8.7 3.5 1.4 5.1zm.5 1.2c.6 1.4 1.4 2.6 2.4 3.7-1.7-.8-3.3-1.9-4.5-3.3.6-.1 1.3-.3 2.1-.4zm13.8 0c.7.1 1.5.2 2.1.4-1.3 1.4-2.8 2.5-4.5 3.3 1-1.1 1.8-2.3 2.4-3.7zm.5-1.2c.6-1.6 1.1-3.3 1.5-5.1h4c-.7 2-1.7 3.9-3 5.6-.7-.2-1.6-.3-2.5-.5zM3 27.7h2.8c.7 2.1 1.7 4.1 3 6-.4.1-.7.2-1.1.4-2-1.8-3.6-3.9-4.7-6.4zM8.8 35c.2-.1.5-.2.7-.2.6.7 1.2 1.3 1.8 1.8-.8-.4-1.7-1-2.5-1.6zm21.6-.2c.3.1.5.2.7.2-.8.6-1.7 1.1-2.6 1.6.8-.5 1.4-1.2 1.9-1.8zm1.9-.7c-.3-.1-.7-.3-1.1-.4 1.3-1.8 2.3-3.8 3-6H37c-1.1 2.5-2.7 4.6-4.7 6.4zm-9-17.5l-1.5 4.9-1.2-2.4c-.1-.2-.3-.3-.6-.3-.2 0-.5.1-.6.3l-1.2 2.4-1.5-4.9c-.1-.3-.5-.5-.8-.4s-.5.5-.4.8l1.9 6.5c.1.3.3.4.6.5.3 0 .5-.1.6-.4l1.4-2.7 1.4 2.7c.1.2.3.4.6.4s.5-.2.6-.5l1.9-6.5c.1-.3-.1-.7-.4-.8-.4-.1-.7 0-.8.4zm10.3 0l-1.5 4.9-1.2-2.4c-.1-.2-.3-.3-.6-.3s-.5.1-.6.3l-1.2 2.4-1.5-4.9c-.1-.3-.5-.5-.8-.4-.3.1-.5.5-.4.8l1.9 6.5c.1.3.3.4.6.5.3 0 .5-.1.6-.4l1.4-2.7 1.4 2.7c.1.2.3.4.6.4h.1c.3 0 .5-.2.6-.5l1.9-6.5c.1-.3-.1-.7-.4-.8-.5-.1-.8 0-.9.4zm-20.7 0l-1.5 4.9-1.2-2.4c-.1-.2-.3-.3-.6-.3-.2 0-.5.1-.6.3l-1.2 2.4-1.5-4.9c-.1-.3-.5-.5-.8-.4-.3.1-.5.5-.4.8L7 23.5c.1.3.3.4.6.5.3 0 .5-.1.6-.4l1.4-2.7 1.4 2.7c.1.2.3.4.6.4h.1c.3 0 .5-.2.6-.5l1.9-6.5c.1-.3-.1-.7-.4-.8-.4-.1-.8 0-.9.4z" fill="#004fac"/></svg>