<svg version="1.1" id="Layer_1" xmlns="http://www.w3.org/2000/svg" x="0" y="0" viewBox="0 0 40 40" xml:space="preserve"><style>.st1{fill:#004fac}</style><path d="M14.8 32.9h10.3V22.6H14.8v10.3zm3.4-6.9c.1-.9.9-1.6 1.8-1.5 1 0 1.9.6 1.9 1.4 0-.8-.9-1.4-1.9-1.4-.9-.1-1.7.6-1.8 1.5 0 1.8 3.6 1.6 3.6 3.5-.1.9-.9 1.5-1.8 1.5-1 0-1.9-.6-1.9-1.4 0 .8.9 1.4 1.9 1.4.9.1 1.7-.6 1.8-1.5 0-1.9-3.6-1.7-3.6-3.5zm-3.4-15h2.6v5.8h-2.6V11zm5.2 0h2.6v5.8H20V11zm-2.6 0H20v5.8h-2.6V11zm5.2 0h2.6v5.8h-2.6V11z" fill="#57a4ff"/><path class="st1" d="M14.8 33.5h10.3c.4 0 .6-.3.6-.6V22.6c0-.4-.3-.6-.6-.6H14.8c-.4 0-.6.3-.6.6v10.3c0 .4.3.6.6.6zm9.7-10.3v9h-3.9v-.6-.1c1-.2 1.8-1 1.8-2.1 0-1.4-1.2-1.9-2.2-2.4-.9-.4-1.4-.7-1.4-1.1s.5-.8 1.2-.8 1.3.4 1.3.8.3.6.6.6c.4 0 .6-.3.6-.6-.1-1-.9-1.9-2-2v-.7h4zm-9 0h3.9v.7c-1 .2-1.8 1-1.8 2.1 0 1.3 1.2 1.9 2.2 2.3.9.4 1.4.7 1.4 1.2s-.5.8-1.2.8-1.3-.4-1.3-.8-.3-.6-.6-.6c-.4 0-.6.3-.6.6.1 1 .9 1.9 2 2v.7h-3.9c-.1.1-.1-9-.1-9zm-.7-5.8h10.3c.4 0 .6-.3.6-.6V11c0-.4-.3-.6-.6-.6H14.8c-.4 0-.6.3-.6.6v5.8c0 .3.3.6.6.6zm4.6-1.3h-1.3v-4.5h1.3v4.5zm1.2-4.5h1.3v4.5h-1.3v-4.5zm3.9 4.5h-1.3v-4.5h1.3v4.5zm-9-4.5h1.3v4.5h-1.3v-4.5z"/><path class="st1" d="M39.4 38.7h-5.2V20.6h5.2c.3 0 .5-.2.6-.4.1-.2 0-.5-.1-.7L20.5.2c-.3-.3-.7-.3-.9 0L.2 19.5c-.2.2-.3.5-.2.7.1.2.3.4.6.4h5.2v18.1H.6c-.3 0-.6.3-.6.7 0 .3.3.6.6.6h38.7c.4 0 .6-.3.6-.6.1-.4-.2-.7-.5-.7zM6.5 19.4H2.2L20 1.6l17.8 17.8h-4.2c-.4 0-.6.3-.6.6v18.7H7.1V20c0-.4-.3-.6-.6-.6z"/></svg>