<svg version="1.1" id="Layer_1" xmlns="http://www.w3.org/2000/svg" x="0" y="0" viewBox="0 0 40 40" xml:space="preserve"><style>.st0{fill:#57a4ff}.st1{fill:#004fac}</style><path class="st0" d="M17.4 16.8h6.5v-2.6h-7.7v2.6h1.2zm11.6 0h7.7v-2.6H29v2.6zm-6.4 14.8h-6.5v2.6h7.7v-2.6h-1.2zm6.4 0v2.6h7.7v-2.6H29zM11 16.8v-2.6H3.2v2.6H11zm0 14.8H3.2v2.6H11v-2.6zM.6 36.7v2.6h38.7v-2.6H.6zm23.3-2.5h-22v2.6H38v-2.6H23.9zm-6.5-17.4h5.2v14.8h-5.2V16.8z"/><path class="st0" d="M20 .7L6.5 7.1H.6v7.1h38.7V7.1h-5.8L20 .7zm0 11.6c-2.5 0-4.5-2-4.5-4.5s2-4.5 4.5-4.5 4.5 2 4.5 4.5-2 4.5-4.5 4.5zm10.3 4.5h5.2v14.8h-5.2V16.8zm-25.8 0h5.2v14.8H4.5V16.8z"/><path class="st1" d="M36.8 17.4c.4 0 .6-.3.6-.6v-1.9h1.9c.4 0 .6-.3.6-.6V7.1c0-.4-.3-.6-.6-.6h-5.7L20.3.1c-.2-.1-.4-.1-.6 0L6.3 6.5H.6c-.3 0-.6.3-.6.6v7.1c0 .4.3.6.6.6h1.9v1.9c0 .4.3.6.6.6h.6v13.5h-.5c-.4 0-.6.3-.6.6v1.9h-.7c-.4 0-.6.3-.6.6v1.9H.6c-.4 0-.6.3-.6.6V39c0 .7.3 1 .6 1h38.7c.4 0 .6-.3.6-.6v-2.6c0-.4-.3-.6-.6-.6h-.6v-1.9c0-.4-.3-.6-.6-.6h-.6v-1.9c0-.4-.3-.6-.6-.6h-.6V17.4h.5zm-.7-1.3h-6.5v-1.3h6.5v1.3zM29 30.9c-.4 0-.6.3-.6.6v1.9h-3.9v-1.9c0-.4-.3-.6-.6-.6h-.6V17.4h.6c.4 0 .6-.3.6-.6v-1.9h3.9v1.9c0 .4.3.6.6.6h.6v13.5H29zm-12.2 2.6v-1.3h6.5v1.3h-6.5zm-5.2 0v-1.9c0-.4-.3-.6-.6-.6h-.6V17.4h.6c.4 0 .6-.3.6-.6v-1.9h3.9v1.9c0 .4.3.6.6.6h.6v13.5h-.6c-.4 0-.6.3-.6.6v1.9h-3.9zM5.2 17.4H9v13.5H5.2V17.4zm18-2.6v1.3h-6.5v-1.3h6.5zm-5.1 2.6H22v13.5h-3.9V17.4zm12.9 0h3.9v13.5H31V17.4zM1.3 7.8h5.2c.1 0 .2 0 .3-.1L20 1.4l13.3 6.3c.1 0 .2.1.3.1h5.2v5.8H1.3V7.8zm9 7v1.3H3.9v-1.3h6.4zM3.9 32.2h6.5v1.3H3.9v-1.3zm34.8 6.5H1.3v-1.3h37.4v1.3zM2.6 36.1v-1.3h34.8v1.3H2.6zm27.1-2.6v-1.3h6.5v1.3h-6.5z"/><path class="st1" d="M20 12.9c2.9 0 5.2-2.3 5.2-5.2S22.9 2.6 20 2.6c-2.9 0-5.2 2.3-5.2 5.2 0 2.8 2.4 5.1 5.2 5.1zm0-9c2.1 0 3.9 1.7 3.9 3.9s-1.7 3.9-3.9 3.9-3.9-1.7-3.9-3.9 1.8-3.9 3.9-3.9z"/><path class="st1" d="M19.4 4.5v.1c-.7.3-1.2.9-1.2 1.7 0 1.1.9 1.6 1.5 1.9.7.4.9.5.9.8 0 .3-.3.5-.6.5s-.6-.2-.6-.5c0-.4-.3-.6-.6-.6-.4 0-.6.3-.6.6 0 .8.5 1.5 1.3 1.7v.3c0 .4.3.6.6.6s.6-.3.6-.6v-.1c.7-.3 1.2-.9 1.2-1.7 0-1.1-.9-1.6-1.6-2-.7-.3-.9-.5-.9-.8 0-.3.3-.6.6-.5.3 0 .6.2.6.5 0 .4.3.6.6.6.4 0 .6-.3.6-.6 0-.8-.5-1.5-1.3-1.7v-.2c0-.4-.3-.6-.6-.6s-.5.3-.5.6z"/></svg>