<svg xmlns="http://www.w3.org/2000/svg" viewBox="0 0 40 40"><path d="M21.6 3.7c-.4-.5-.9-.7-1.5-.7s-1.1.2-1.5.7C17.5 5.2 7.1 18.5 7.1 25.1c0 7.1 5.8 12.9 13 12.9s13-5.8 13-12.9c0-6.6-10.3-19.9-11.5-21.4z" fill="#004fac"/><path d="M20.2 36.6c-6.3 0-11.5-5.1-11.5-11.4 0-4.4 6.5-14.5 11.5-21.3 5.1 6.8 11.5 17 11.5 21.3 0 6.2-5.2 11.4-11.5 11.4z" fill="#57a4ff"/><path d="M24.8 20.5c-.1-.3-.5-.5-.8-.5-.4 0-.7.2-.9.6-.2.3-.1.7.1 1 1.9 2.9 2.8 4.9 2.8 5.4 0 1.1-.9 2-2 2-.5 0-1 .5-1 1 0 .6.4 1 1 1 1.1 0 2.1-.4 2.8-1.2.8-.8 1.2-1.8 1.2-2.9 0-1.5-2.2-5-3.2-6.4z" fill="#fff"/></svg>